<svg width="19" height="19" viewBox="0 0 19 19" fill="none" xmlns="http://www.w3.org/2000/svg">
<path d="M17.4206 10.9949L18.98 4.13377C19.0926 3.63839 18.716 3.16665 18.208 3.16665H5.25165L4.9493 1.68855C4.87396 1.32012 4.54977 1.05554 4.1737 1.05554H0.791667C0.354436 1.05554 0 1.40998 0 1.84721V2.37499C0 2.81222 0.354436 3.16665 0.791667 3.16665H3.09684L5.41404 14.4952C4.85968 14.814 4.48611 15.4118 4.48611 16.0972C4.48611 17.1174 5.31314 17.9444 6.33333 17.9444C7.35353 17.9444 8.18056 17.1174 8.18056 16.0972C8.18056 15.5802 7.96789 15.1131 7.6256 14.7778H14.541C14.1988 15.1131 13.9861 15.5802 13.9861 16.0972C13.9861 17.1174 14.8131 17.9444 15.8333 17.9444C16.8535 17.9444 17.6806 17.1174 17.6806 16.0972C17.6806 15.3658 17.2554 14.7338 16.6389 14.4345L16.8209 13.6338C16.9335 13.1384 16.5569 12.6667 16.0489 12.6667H7.19483L6.97894 11.6111H16.6487C17.0183 11.6111 17.3387 11.3553 17.4206 10.9949Z" fill="black"/>
</svg>
