<svg width="17" height="19" viewBox="0 0 17 19" fill="none" xmlns="http://www.w3.org/2000/svg">
<path d="M8.5 9.5C11.1236 9.5 13.25 7.37363 13.25 4.75C13.25 2.12637 11.1236 0 8.5 0C5.87637 0 3.75 2.12637 3.75 4.75C3.75 7.37363 5.87637 9.5 8.5 9.5ZM11.825 10.6875H11.2053C10.3814 11.066 9.46484 11.2812 8.5 11.2812C7.53516 11.2812 6.62227 11.066 5.79473 10.6875H5.175C2.42148 10.6875 0.1875 12.9215 0.1875 15.675V17.2188C0.1875 18.2021 0.985352 19 1.96875 19H15.0312C16.0146 19 16.8125 18.2021 16.8125 17.2188V15.675C16.8125 12.9215 14.5785 10.6875 11.825 10.6875Z" fill="black"/>
</svg>
